# xmcd
#
# Track frame offsets: 
#        150
#        20360
#        37800
#        61763
#        80510
#        100193
#        112158
#        129975
#        148948
#        165125
#        195075
#
# Disc length: 2955 seconds
#
# Revision: 0
# Processed by: cddbd v1.5.2PL0 Copyright (c) Steve Scherf et al.
# Submitted via: ExactAudioCopy v0.99pb3
#
DISCID=7f0b890b
DTITLE=Democustico - Democustico
DYEAR=2006
DGENRE=Fusion
TTITLE0=Summer of Flora
TTITLE1=Grito
TTITLE2=Vaga-lume
TTITLE3=A Sereia
TTITLE4=O Sonho
TTITLE5=Rejoycing
TTITLE6=Paz
TTITLE7=Nunca Never
TTITLE8=Pêra
TTITLE9=Brasil
TTITLE10=A Viagem
EXTD=
EXTT0=
EXTT1=
EXTT2=
EXTT3=
EXTT4=
EXTT5=
EXTT6=
EXTT7=
EXTT8=
EXTT9=
EXTT10=
PLAYORDER=
